<svg width="210" height="413" viewBox="0 0 210 413" fill="none" xmlns="http://www.w3.org/2000/svg">
<path d="M119.468 78.3177C118.043 78.3802 117.211 78.4413 117.211 78.4413L116.925 62.496H117.031L116.455 32.9929L124.145 16.0255L116.762 9.99397L112.48 6.49425L104.92 0L84.5222 16.4974L93.3843 32.9933L92.998 62.4963H93.0752L92.7892 78.4417C92.7892 78.4417 91.9558 78.3806 90.5317 78.3181C83.2221 77.9976 60.037 77.6417 50.3953 85.3533H80.3468C80.3468 85.3533 87.3488 85.3651 91.0355 94.4002C92.352 97.6252 93.2497 101.992 93.2497 107.932C93.2497 113.511 92.9684 127.143 92.6143 144.808C92.5335 148.852 92.4486 153.11 92.3623 157.529L91.4642 208.544C91.3643 215.738 91.2659 224.286 91.2019 233.408V265.6H91.2264C91.0856 297.146 91.5132 323.92 93.2497 331.73C93.2497 331.73 95.6242 355.333 99.1426 379.395C100.868 391.196 102.869 403.105 105 412.396C107.131 403.105 109.131 391.196 110.857 379.395C114.376 355.334 116.75 331.73 116.75 331.73C118.412 324.248 118.875 299.371 118.787 269.565C118.767 274.316 118.685 293.515 118.781 267.485C118.781 267.484 118.781 267.481 118.781 267.48C118.778 266.849 118.775 266.216 118.773 265.58L118.777 252.451C118.685 223.508 118.179 187.407 118.179 187.407C117.929 172.118 117.639 157.431 117.386 144.808C117.03 127.142 116.75 113.511 116.75 107.932C116.75 101.992 117.648 97.6249 118.965 94.3999C122.65 85.3647 129.652 85.353 129.652 85.353H159.605C149.963 77.6413 126.778 77.9969 119.468 78.3177Z" fill="#F9A03F"/>
<path fill-rule="evenodd" clip-rule="evenodd" d="M107.74 115.734C108.105 115.787 108.469 115.877 108.836 115.891C127.839 116.646 145.025 122.744 160.622 133.506C162.208 134.6 163.754 135.754 165.311 136.875C164.903 137.582 142.741 159.823 141.663 160.621C130.482 153.383 118.215 149.664 104.843 149.681C91.4909 149.699 79.1788 153.268 68.0906 160.458C60.177 152.543 52.3289 144.696 44.4629 136.831C44.4958 136.801 44.6612 136.634 44.8459 136.493C55.1215 128.695 66.3585 122.798 78.8206 119.329C84.9055 117.635 91.0969 116.546 97.4006 116.116C98.6502 116.03 99.9024 115.97 101.152 115.885C101.452 115.863 101.748 115.784 102.045 115.734C103.945 115.734 105.842 115.734 107.74 115.734Z" fill="#E0FBFC"/>
<path fill-rule="evenodd" clip-rule="evenodd" d="M188.893 281.384C181.03 273.521 173.201 265.693 165.299 257.791C172.621 246.659 176.371 234.323 176.403 220.887C176.435 207.474 172.69 195.175 165.362 184.103C173.269 176.196 181.118 168.345 188.961 160.503C216.365 193.703 217.677 245.248 188.893 281.384Z" fill="#E0FBFC"/>
<path fill-rule="evenodd" clip-rule="evenodd" d="M44.4889 257.823C36.5819 265.729 28.7725 273.539 20.8655 281.446C9.23967 266.18 2.0416 249.141 0.399838 229.913C-1.80088 204.135 5.09979 180.999 20.687 160.512C28.5604 168.384 36.3865 176.212 44.3192 184.143C37.0563 195.178 33.3112 207.502 33.2965 220.942C33.2812 234.372 37.1478 246.626 44.4889 257.823Z" fill="#E0FBFC"/>
<path fill-rule="evenodd" clip-rule="evenodd" d="M141.866 281.478C149.748 289.36 157.533 297.145 165.368 304.98C165.212 305.122 165.037 305.308 164.836 305.46C153.607 313.989 141.242 320.152 127.485 323.425C122.303 324.658 117.054 325.446 111.74 325.824C107.44 326.131 103.138 326.179 98.8389 325.945C87.8514 325.35 77.2674 322.951 67.1307 318.64C59.2007 315.268 51.8599 310.89 45.0178 305.664C44.7786 305.481 44.5485 305.286 44.3176 305.1C44.7072 304.416 66.2861 282.722 67.7464 281.554C78.9015 289.093 91.2355 292.964 104.778 292.92C118.315 292.877 130.651 288.981 141.866 281.478Z" fill="#E0FBFC"/>
</svg>
